<?xml version="1.0" standalone="no"?>
<!DOCTYPE svg PUBLIC "-//W3C//DTD SVG 1.1//EN" "http://www.w3.org/Graphics/SVG/1.1/DTD/svg11.dtd" >
<svg xmlns="http://www.w3.org/2000/svg">
<metadata>Generated by IcoMoon</metadata>
<defs>
<font id="flyIcons" horiz-adv-x="1024">
<font-face units-per-em="1024" ascent="960" descent="-64" />
<missing-glyph horiz-adv-x="1024" />
<glyph unicode="&#x20;" horiz-adv-x="512" d="" />
<glyph unicode="&#xe601;" glyph-name="monitor" horiz-adv-x="1164" d="M1047.273 960h-930.909c-64 0-116.364-52.364-116.364-116.364v-640c0-64 51.34-126.639 114.118-139.194l254.359-50.874c0 0-218.927-77.568-77.568-77.568h581.818c141.382 0-77.568 77.568-77.568 77.568l254.383 50.874c62.755 12.556 114.095 75.194 114.095 139.194v640c0 64-52.364 116.364-116.364 116.364zM1047.273 209.455h-930.909v645.818h930.909v-645.818z" />
<glyph unicode="&#xe602;" glyph-name="note" horiz-adv-x="632" d="M413.881 960h-87.378v-711.985c-48.313 18.585-110.832 18.846-172.5-3.573-110.494-40.219-176.313-138.011-147.053-218.417 29.282-80.428 142.576-113.010 253.048-72.802 93.838 34.141 155.223 109.829 153.72 181.117l0.153 582.275c152.358-24.010 162.783-216.609 144.537-270.619-6.928-20.469 5.273-35.796 28.302 0 164.276 255.542-172.827 368.291-172.827 514.004z" />
<glyph unicode="&#xe603;" glyph-name="brush" horiz-adv-x="1046" d="M128.719 253.963c-82.465-81.049-12.822-164.265-122.401-287.624-49.457-55.699 203.602-38.716 328.976 84.534 53.183 52.268 38.182 128.468-18.857 184.549-57.028 56.080-134.547 70.809-187.719 18.541zM1042.53 956.808c-42.333 41.581-510.845-333.868-650.338-470.986-69.229-68.042-92.334-104.524-113.555-131.813-9.227-11.841 2.963-15.513 8.453-18.312 27.419-13.955 46.592-26.962 71.386-51.331 24.805-24.369 38.041-43.226 52.235-70.166 2.843-5.403 6.58-17.397 18.606-8.345 27.779 20.861 64.871 43.585 134.090 111.638 139.504 137.129 521.412 597.722 479.123 639.314z" />
<glyph unicode="&#xe604;" glyph-name="bag" horiz-adv-x="1048" d="M1019.234 834.011c-18.030 15.579-116.187 89.88-134.51 105.704-18.322 15.835-47.006 20.285-67.182 20.285h-586.691c-20.175 0-48.859-4.45-67.182-20.285-18.322-15.823-116.48-90.136-134.51-105.704-18.042-15.579-33.061-39.083-28.245-72.606 4.827-33.524 118.040-790.711 118.040-790.711 6.363-19.078 28.075-34.694 48.25-34.694h713.972c20.175 0 41.899 15.616 48.25 34.694 0 0 113.213 757.187 118.028 790.711s-10.191 57.027-28.221 72.606zM524.19 303.628c-197.949 0-240.36 280.198-249.125 337.944h111.933c16.884-84.212 55.211-228.23 137.192-228.23s120.308 144.006 137.192 228.23h111.933c-8.765-57.746-51.163-337.944-249.125-337.944zM95.281 752.762l134.437 140.19h588.946l134.449-140.19h-857.832z" />
<glyph unicode="&#xe605;" glyph-name="cup" horiz-adv-x="1002" d="M566.55 205.69c0 80.762 61.195 125.395 161.057 191.555 122.123 80.918 274.131 181.615 274.131 420.619 0 21.515-17.642 38.957-39.402 38.957h-190.887c-27.002 49.842-107.375 103.179-270.581 103.179s-243.578-53.337-270.581-103.179h-190.887c-21.76 0-39.402-17.441-39.402-38.957 0-239.004 152.008-339.701 274.131-420.619 99.862-66.159 161.057-110.792 161.057-191.555v-72.938c-104.871-11.642-181.938-50.454-181.938-96.579 0-55.329 110.859-100.174 247.619-100.174s247.619 44.845 247.619 100.174c0 46.125-77.067 84.936-181.938 96.59v72.927zM721.074 486.957c31.588 66.805 56.554 157.34 60.594 291.951h139.609c-13.267-150.227-103.569-226.104-200.203-291.951zM500.87 891.782c152.053 0.089 211.445-62.097 211.367-85.148 0-23.196-59.292-85.293-211.367-85.415-152.075 0.122-211.367 62.219-211.367 85.415-0.078 23.051 59.314 85.237 211.367 85.148zM80.451 778.908h139.609c4.040-134.611 29.006-225.146 60.594-291.951-96.623 65.848-186.925 141.724-200.203 291.951z" />
<glyph unicode="&#xe606;" glyph-name="mail" d="M1009.628 945.64c-34.864 34.864-68.096 1.941-181.046-52.355-302.044-145.194-828.583-440.26-828.583-440.26l452.37-64.631 64.631-452.394c0 0 295.091 526.527 440.26 828.595 54.32 112.95 87.231 146.17 52.367 181.046zM901.096 829.261l-328.561-610.185-33.351 277.302 361.913 332.883z" />
<glyph unicode="&#xe607;" glyph-name="heart" horiz-adv-x="1258" d="M1154.896 875.827c-122.28 112.216-320.512 112.216-442.821 0l-83.032-76.215-83.061 76.215c-122.251 112.216-320.512 112.216-442.807 0-137.567-126.259-137.567-330.957 0-457.216l525.868-482.611 525.853 482.611c137.552 126.259 137.552 330.957 0 457.216z" />
<glyph unicode="&#xe612;" glyph-name="wallet" horiz-adv-x="1205" d="M548.141 417.882h108.424v-120.471h548.141c0 0-8.915 268.517-12.047 352.581-2.964 79.896-31.551 129.301-120.471 129.301h-193.223c-29.949 56.453-62.187 117.17-72.090 135.819-19.938 37.575-26.732 44.887-71.042 44.887h-266.963c-44.309 0-51.104-7.313-71.029-44.887-9.915-18.637-42.153-79.366-72.078-135.819h-193.247c-88.919 0-117.182-49.417-120.471-129.301-3.289-79.872-12.047-352.581-12.047-352.581h548.141v120.471zM460.8 844.613c13.806 26.010 18.516 31.057 49.176 31.057h184.754c30.66 0 35.394-5.048 49.176-31.057 5.18-9.746 19.179-36.153 34.659-65.319h-352.425c15.48 29.166 29.479 55.561 34.659 65.319zM656.565 116.706h-108.424v120.471h-518.024c0 0 7.505-108.303 12.047-200.138 1.879-38.069 13.083-101.039 108.375-101.039h903.626c95.292 0 106.255 62.982 108.375 101.039 5.253 94.449 12.047 200.138 12.047 200.138h-518.024v-120.471z" />
<glyph unicode="&#xe613;" glyph-name="chart" horiz-adv-x="910" d="M853.333 960h-125.156c-31.425 0-45.511-25.463-45.511-56.889v-967.111h227.556v967.111c0 31.425-25.463 56.889-56.889 56.889zM512 618.667h-125.156c-31.425 0-45.511-25.463-45.511-56.889v-625.778h227.556v625.778c0 31.425-25.463 56.889-56.889 56.889zM170.667 277.333h-125.156c-31.425 0-45.511-25.463-45.511-56.889v-284.444h227.556v284.444c0 31.425-25.463 56.889-56.889 56.889z" />
<glyph unicode="&#xe634;" glyph-name="check" d="M904.752 709.072c-12.72 14.528-32.704 21.792-56.336 18.144-23.616-3.616-43.616-12.704-61.792-30.848l-336.208-289.088-170.832 136.32c-21.808 18.176-41.792 27.28-63.6 29.104s-39.984-1.824-52.704-12.704l-9.088-7.264c-14.544-16.352-21.808-36.368-19.984-59.984v-1.856c1.808-12.672 5.456-23.616 14.528-36.336l18.176-23.616 218.080-218.176 21.808-16.32c10.896-7.296 23.616-9.088 36.352-10.88l12.72-1.824h5.456c21.808 3.616 41.792 12.704 56.336 25.376l374.368 378.192c18.176 19.968 29.072 41.776 30.896 63.568 3.632 23.616-1.824 43.616-18.176 58.192zM886.576 654.496c-1.824-14.496-9.088-29.056-21.808-41.808l-372.544-378.096c-10.912-7.264-21.808-10.88-32.72-14.528l-10.912 1.824h-3.632l-19.984 5.44h-1.824l-12.72 9.088-216.256 219.936c-14.528 12.736-21.808 25.472-23.616 40.016 0 12.704 1.808 21.824 9.088 30.928 9.088 7.264 18.176 9.088 32.704 9.088 14.544-1.824 29.072-9.088 43.616-20l183.552-147.216c1.824-1.856 5.456-3.648 10.912-3.648l10.912 5.44 350.736 298.128c10.912 12.672 25.44 19.968 39.984 21.76 10.896 1.824 21.808-1.792 27.264-7.264 7.248-7.264 9.072-16.352 7.248-29.088z" />
<glyph unicode="&#xe900;" glyph-name="arrow-down" d="M1002.382 711.964c-27.989 27.307-73.273 27.307-101.262 0l-389.12-379.676-389.006 379.676c-27.876 27.307-73.273 27.307-101.262 0s-27.989-71.566 0-98.873l439.637-429.056c13.995-13.653 32.313-20.48 50.631-20.48s36.636 6.827 50.631 20.48l439.751 429.056c27.876 27.307 27.876 71.566 0 98.873z" />
<glyph unicode="&#xe901;" glyph-name="arrow-right" d="M775.964 498.859l-429.056 441.116c-27.307 28.103-71.566 28.103-98.759 0s-27.307-73.5 0-101.604l379.563-390.372-379.676-390.372c-27.307-27.989-27.307-73.5 0-101.604s71.566-28.103 98.873 0l429.056 441.23c13.653 13.995 20.48 32.313 20.48 50.745s-6.827 36.75-20.48 50.859z" />
<glyph unicode="&#xe902;" glyph-name="arrow-up" d="M1002.268 282.908l-439.637 429.056c-13.995 13.653-32.313 20.48-50.631 20.48s-36.636-6.827-50.631-20.48l-439.751-429.056c-27.989-27.307-27.989-71.566 0-98.873s73.273-27.307 101.262 0l389.12 379.676 389.006-379.676c27.876-27.307 73.273-27.307 101.262 0s27.989 71.566 0 98.873z" />
<glyph unicode="&#xe903;" glyph-name="arrow-left" d="M396.288 448l379.676 389.006c27.307 27.876 27.307 73.273 0 101.262s-71.566 27.989-98.873 0l-429.056-439.637c-13.653-13.995-20.48-32.313-20.48-50.631s6.827-36.636 20.48-50.631l429.056-439.751c27.307-27.989 71.566-27.989 98.759 0 27.307 27.989 27.307 73.273 0 101.262l-379.563 389.12z" />
<glyph unicode="&#xe904;" glyph-name="arrow-right-2" horiz-adv-x="2731" d="M2277.831 960v-407.552h-2273.28c-1.479-67.925-3.072-135.851-4.551-203.776 759.239-1.707 1518.592-3.413 2277.831-5.12v-407.552c31.744 37.319 63.374 74.752 95.118 112.071 119.239 134.144 238.478 268.288 357.717 402.432-150.983 169.87-301.966 339.74-452.836 509.497z" />
<glyph unicode="&#xe905;" glyph-name="search" d="M881.613 146.074l-231.117 231.27c33.434 47.053 53.299 104.499 53.299 166.656 0 159.027-128.819 288-287.744 288s-287.744-128.973-287.744-288c0-159.078 128.87-288 287.744-288 62.106 0 119.45 19.866 166.502 53.402l231.117-231.27c9.37-9.37 21.709-14.080 33.997-14.080s24.576 4.71 33.946 14.080c18.739 18.739 18.739 49.152 0 67.942zM572.365 432.998l-18.842-26.522-26.522-18.893c-32.717-23.245-71.066-35.584-110.899-35.584-105.779 0-191.846 86.118-191.846 192 0 105.83 86.067 192 191.846 192s191.846-86.118 191.846-192c0-39.885-12.288-78.234-35.584-111.002zM512.307 560.742h-67.174v67.174c0 12.595-10.189 22.784-22.784 22.784s-22.784-10.189-22.784-22.784v-67.174h-67.226c-12.595 0-22.784-10.189-22.784-22.784s10.189-22.784 22.784-22.784h67.174v-67.174c0-12.595 10.189-22.784 22.784-22.784s22.784 10.189 22.784 22.784v67.123h67.226c12.595 0 22.784 10.189 22.784 22.784s-10.189 22.835-22.784 22.835z" />
<glyph unicode="&#xe906;" glyph-name="search2" horiz-adv-x="1022" d="M1002.961 45.475l-307.665 308.317c44.497 62.743 71.028 139.357 71.028 222.208-0.093 212.061-171.66 384-383.162 384s-383.162-171.939-383.162-384c0-212.061 171.567-384 383.162-384 82.665 0 158.999 26.531 221.649 71.121l307.665-308.41c12.474-12.474 28.858-18.711 45.242-18.711s32.768 6.237 45.242 18.804c24.948 25.041 24.948 65.536 0 90.671zM591.22 427.985l-25.135-35.375-35.281-25.135c-43.567-30.999-94.58-47.476-147.642-47.476-140.847 0-255.441 114.874-255.441 256s114.595 256 255.441 256 255.441-114.874 255.441-256c0-53.155-16.384-104.355-47.383-148.015z" />
<glyph unicode="&#xe907;" glyph-name="close" d="M1024 874.635l-85.301 85.365-426.699-426.699-426.635 426.699-85.365-85.365 426.699-426.635-426.699-426.699 85.365-85.301 426.635 426.635 426.699-426.635 85.301 85.301-426.635 426.699z" />
<glyph unicode="&#xe908;" glyph-name="list" horiz-adv-x="1229" d="M0 960v-204.8h1228.8v204.8h-1228.8zM0 345.6h1024v204.8h-1024v-204.8zM0-64h716.8v204.8h-716.8v-204.8z" />
<glyph unicode="&#xe909;" glyph-name="eye" d="M1017.549 467.661c-8.602 10.342-228.045 287.539-505.549 287.539s-496.947-275.149-505.549-287.539c-8.602-10.342-8.602-26.88 0-37.222 8.602-12.442 228.045-289.638 505.549-289.638 279.654 0 496.947 277.197 505.549 289.587 8.602 10.394 8.602 26.931 0 37.274zM512 202.854c-206.541 0-385.075 186.163-438.835 246.17 53.76 60.006 232.294 244.122 438.835 242.022 206.541 0 385.075-184.115 438.835-244.122-51.61-59.955-232.294-244.070-438.835-244.070zM512 651.725c-116.173 0-210.842-91.034-210.842-202.701 0-111.718 94.669-202.752 210.842-202.752s210.842 91.034 210.842 202.752c0 111.718-94.669 202.701-210.842 202.701zM512 308.378c-81.766 0-146.278 62.054-146.278 140.646s66.662 140.646 146.278 140.646c81.766 0 146.278-64.102 146.278-140.646s-66.662-140.646-146.278-140.646z" />
<glyph unicode="&#xe90a;" glyph-name="arrow-left-2" horiz-adv-x="2731" d="M453.169 960v-407.552h2273.28c1.479-67.925 3.072-135.851 4.551-203.776-759.239-1.707-1518.592-3.413-2277.831-5.12v-407.552c-31.744 37.319-63.374 74.752-95.118 112.071-119.239 134.144-238.478 268.288-357.717 402.432 150.983 169.87 301.966 339.74 452.836 509.497z" />
<glyph unicode="&#xe90b;" glyph-name="arrow-down-2" horiz-adv-x="507" d="M445.5 105.822h-152.832v852.48c-25.472 0.546-50.944 1.152-76.416 1.698-0.64-284.706-1.28-569.472-1.92-854.178h-152.832c13.986-11.904 28.032-23.774 42.018-35.678 50.304-44.706 100.608-89.438 150.912-134.144 63.71 56.61 127.394 113.246 191.070 169.822z" />
<glyph unicode="&#xe90c;" glyph-name="arrow-up-2" horiz-adv-x="507" d="M61.5 790.178h152.832v-852.48c25.472-0.546 50.944-1.152 76.416-1.698 0.64 284.706 1.28 569.472 1.92 854.178h152.832c-13.986 11.904-28.032 23.774-42.018 35.678-50.304 44.706-100.608 89.438-150.912 134.144-63.71-56.61-127.394-113.246-191.070-169.822z" />
<glyph unicode="&#xe90d;" glyph-name="info" d="M654.789 78.267h-54.183v562.244c0 11.645-9.451 21.095-21.095 21.095h-210.289c-11.645 0-21.095-9.451-21.095-21.095v-70.511c0-11.645 9.451-21.095 21.095-21.095h59.552v-470.637h-54.183c-11.645 0-21.095-9.451-21.095-21.095v-100.076c0-11.645 9.451-21.095 21.095-21.095h280.188c11.645 0 21.095 9.451 21.095 21.095v100.076c0.011 11.645-9.419 21.095-21.085 21.095zM512.005 712.889c68.127 0 123.555 55.428 123.555 123.555s-55.428 123.555-123.555 123.555-123.555-55.428-123.555-123.555 55.428-123.555 123.555-123.555z" />
</font>
</defs>
</svg>
